<svg
    xmlns="http://www.w3.org/2000/svg" 
    xmlns:xlink="http://www.w3.org/1999/xlink"
    preserveAspectRatio="x200Y200 meet" 
    viewBox="90 91 330 330" 
    x="0" y="0"
>
    <defs transform="matrix(1.044432520866394, 0, 0, 1.044432520866394, -12.004644393920898, -9.785348892211914)" data-uid="o_emi83j046_4"></defs>
    <path d="M355.5,66.057l105.081,182.008L355.5,430.072H145.335L40.252,248.064L145.335,66.057H355.5 M375.16,32  H125.673L0.928,248.064l124.744,216.064H375.16l124.745-216.064L375.16,32L375.16,32z" fill="#9c46ff" transform="matrix(0, 0.6409235000610352, -0.6409235000610352, 0, 414.9900207519531, 95.50221252441406)" name="Hexagon" data-uid="o_emi83j046_5"></path>
    <g transform="matrix(1.6064442514260178, 0, 0, 1.6064442514260178, 175.0454136249299, 176.8277067266702)" name="Lock" data-uid="o_emi83j046_6">
        <path d="M79.279,58.023c-0.762-5.591-2.49-9.748-5.335-13.376c-0.412-0.526-1.052-1.127-1.127-1.578  c-0.073-0.447,0.106-1.132,0.151-1.729c0.328-4.437,0.459-8.468,0.15-12.924c-0.636-9.173-4.597-15.747-10.896-19.613  c-3.091-1.896-7.603-3.328-12.248-3.005c-2.391,0.166-4.362,0.6-6.237,1.277c-1.91,0.689-3.482,1.567-4.885,2.555  c-4.444,3.129-7.705,7.15-8.942,13.3c-1.053,5.234-1.428,11.064-1.428,17.133c0,1.25,0.207,2.656,0,3.758  c-0.116,0.619-0.723,1.246-1.052,1.729c-2.571,3.775-4.792,7.479-5.862,12.85c-0.614,3.086-0.454,6.71,0.076,9.844  c1.51,8.953,5.871,15.636,12.474,19.688c4.444,2.728,9.83,4.884,16.532,4.884c6.382,0,11.623-2.485,15.931-5.411  c4.31-2.926,8.018-6.758,10.219-11.196C79.188,71.393,80.197,64.752,79.279,58.023z M36.973,29.017  c0.195-2.415,0.404-4.898,1.203-6.763c0.44-1.028,1.273-2.041,1.954-2.931c2.313-3.023,5.824-5.931,11.347-5.561  c2.64,0.177,5.013,1.228,6.988,2.405c1.99,1.185,3.585,2.611,4.659,4.659c2.17,4.14,2.596,9.927,1.803,16.081  c-0.508,0.024-0.898-0.368-1.353-0.601c-3.26-1.672-7.68-3.076-12.625-3.082c-5.584-0.006-10.575,1.731-14.203,3.532  C36.711,34.147,36.774,31.485,36.973,29.017z M50.326,83.436c-11.28-0.003-20.417-9.141-20.421-20.42  c0.003-11.281,9.141-20.418,20.421-20.422c11.279,0.004,20.417,9.141,20.42,20.422C70.743,74.295,61.605,83.433,50.326,83.436z" transform="matrix(1, 0, 0, 1, 0, 0)" fill="#9c46ff" data-uid="o_emi83j046_7"></path>
    </g>
    <path text="G" fill="#9c46ff" space="preserve" text-anchor="middle" offset="0.5" font-scale="contain" font-size="48" font-family="Work Sans" transform="matrix(1, 0, 0, 1, 255.26599979400635, 294.17032511837806)" name="G" font-weight="400" font-style="normal" data-uid="o_emi83j046_8" data-fl-textpath="" d="M 0.003999999999997783-15.98L 13.584-15.98L 13.584 0L 10.703999999999997 0L 10.564-4.27Q 9.163999999999998-1.97  6.643999999999998-0.74Q 4.123999999999999 0.48  0.5739999999999981 0.48L 0.5739999999999981 0.48Q-3.886000000000001 0.48 -7.1960000000000015-1.51Q-10.516000000000002-3.5 -12.316000000000003-7.18Q-14.116000000000001-10.85 -14.116000000000001-15.84L-14.116000000000001-15.84Q-14.116000000000001-20.78 -12.266000000000002-24.48Q-10.416-28.18 -7.0760000000000005-30.17Q-3.7460000000000004-32.16  0.6739999999999995-32.16L 0.6739999999999995-32.16Q 5.373999999999999-32.16  8.424-30.38Q 11.474-28.61  13.343999999999998-24.91L 13.343999999999998-24.91L 9.843999999999998-22.99Q 8.783999999999999-25.68  6.404-27.12Q 4.033999999999999-28.56  0.6739999999999995-28.56L 0.6739999999999995-28.56Q-2.546000000000001-28.56 -4.966000000000001-27.02Q-7.396000000000001-25.49 -8.736-22.63Q-10.076-19.78 -10.076-15.84L-10.076-15.84Q-10.076-9.79 -7.296000000000001-6.46Q-4.516000000000002-3.12  0.7240000000000002-3.12L 0.7240000000000002-3.12Q 4.843999999999998-3.12  7.463999999999999-5.23Q 10.084-7.34  10.084-11.28L 10.084-11.28L 10.084-12.38L 0.003999999999997783-12.38L 0.003999999999997783-15.98Z"></path>
</svg>